<mxfile host="app.diagrams.net" agent="Mozilla/5.0 (Macintosh; Intel Mac OS X 10_15_7) AppleWebKit/605.1.15 (KHTML, like Gecko) Version/18.2 Safari/605.1.15" version="26.0.10">
  <diagram id="Ht1M8jgEwFfnCIfOTk4-" name="Page-1">
    <mxGraphModel dx="1242" dy="1629" grid="1" gridSize="10" guides="1" tooltips="1" connect="1" arrows="1" fold="1" page="1" pageScale="1" pageWidth="1169" pageHeight="827" background="none" math="0" shadow="0">
      <root>
        <mxCell id="0" />
        <mxCell id="1" parent="0" />
        <mxCell id="YrNKa76hlHVVeDNpaleT-4" value="AWS Cloud" style="sketch=0;outlineConnect=0;gradientColor=none;html=1;whiteSpace=wrap;fontSize=12;fontStyle=0;shape=mxgraph.aws4.group;grIcon=mxgraph.aws4.group_aws_cloud;strokeColor=#AAB7B8;fillColor=none;verticalAlign=top;align=left;spacingLeft=30;fontColor=#AAB7B8;dashed=0;" vertex="1" parent="1">
          <mxGeometry x="150" y="-40" width="590" height="610" as="geometry" />
        </mxCell>
        <mxCell id="YrNKa76hlHVVeDNpaleT-10" value="VPC" style="sketch=0;outlineConnect=0;gradientColor=none;html=1;whiteSpace=wrap;fontSize=12;fontStyle=0;shape=mxgraph.aws4.group;grIcon=mxgraph.aws4.group_vpc;strokeColor=#879196;fillColor=none;verticalAlign=top;align=left;spacingLeft=30;fontColor=#879196;dashed=0;" vertex="1" parent="1">
          <mxGeometry x="350" y="120" width="360" height="270" as="geometry" />
        </mxCell>
        <mxCell id="YrNKa76hlHVVeDNpaleT-6" value="Private subnet" style="points=[[0,0],[0.25,0],[0.5,0],[0.75,0],[1,0],[1,0.25],[1,0.5],[1,0.75],[1,1],[0.75,1],[0.5,1],[0.25,1],[0,1],[0,0.75],[0,0.5],[0,0.25]];outlineConnect=0;gradientColor=none;html=1;whiteSpace=wrap;fontSize=12;fontStyle=0;container=1;pointerEvents=0;collapsible=0;recursiveResize=0;shape=mxgraph.aws4.group;grIcon=mxgraph.aws4.group_security_group;grStroke=0;strokeColor=#00A4A6;fillColor=#E6F6F7;verticalAlign=top;align=left;spacingLeft=30;fontColor=#147EBA;dashed=0;" vertex="1" parent="1">
          <mxGeometry x="360" y="170" width="340" height="180" as="geometry" />
        </mxCell>
        <mxCell id="2bszFWF5enrOarzOYY19-1" value="&lt;div&gt;&lt;font style=&quot;font-size: 10px;&quot;&gt;Amazon&amp;nbsp;&lt;/font&gt;&lt;/div&gt;&lt;div&gt;&lt;font style=&quot;font-size: 10px;&quot;&gt;Elasticache Redis&lt;/font&gt;&lt;/div&gt;" style="outlineConnect=0;fontColor=#232F3E;gradientColor=none;fillColor=#C925D1;strokeColor=none;dashed=0;verticalLabelPosition=bottom;verticalAlign=top;align=center;html=1;fontSize=12;fontStyle=0;aspect=fixed;pointerEvents=1;shape=mxgraph.aws4.elasticache_for_redis;rounded=0;" parent="YrNKa76hlHVVeDNpaleT-6" vertex="1">
          <mxGeometry x="270" y="62.88" width="50" height="44.23" as="geometry" />
        </mxCell>
        <mxCell id="UEzPUAAOIrF-is8g5C7q-115" value="&lt;div&gt;&lt;font style=&quot;font-size: 10px;&quot;&gt;&lt;b&gt;Lambda function&lt;/b&gt;&lt;br&gt;&lt;/font&gt;&lt;/div&gt;&lt;font style=&quot;font-size: 10px;&quot;&gt;Manage Recipients&amp;nbsp;&lt;/font&gt;&lt;div&gt;&lt;br&gt;&lt;/div&gt;" style="outlineConnect=0;fontColor=#232F3E;gradientColor=none;fillColor=#D05C17;strokeColor=none;dashed=0;verticalLabelPosition=bottom;verticalAlign=top;align=center;html=1;fontSize=12;fontStyle=0;aspect=fixed;pointerEvents=1;shape=mxgraph.aws4.lambda_function;labelBackgroundColor=none;rounded=0;" parent="YrNKa76hlHVVeDNpaleT-6" vertex="1">
          <mxGeometry x="50" y="60.00000000000001" width="50" height="50" as="geometry" />
        </mxCell>
        <mxCell id="CtdPbiy3GI51ASY6TGqe-6" value="" style="edgeStyle=orthogonalEdgeStyle;rounded=0;orthogonalLoop=1;jettySize=auto;labelBackgroundColor=none;html=1;" parent="YrNKa76hlHVVeDNpaleT-6" source="UEzPUAAOIrF-is8g5C7q-115" target="2bszFWF5enrOarzOYY19-1" edge="1">
          <mxGeometry x="0.0127" y="26" relative="1" as="geometry">
            <mxPoint as="offset" />
          </mxGeometry>
        </mxCell>
        <mxCell id="CtdPbiy3GI51ASY6TGqe-14" style="edgeStyle=orthogonalEdgeStyle;rounded=0;orthogonalLoop=1;jettySize=auto;html=1;" parent="1" source="UEzPUAAOIrF-is8g5C7q-114" target="UEzPUAAOIrF-is8g5C7q-115" edge="1">
          <mxGeometry relative="1" as="geometry">
            <Array as="points" />
          </mxGeometry>
        </mxCell>
        <mxCell id="CtdPbiy3GI51ASY6TGqe-19" value="Tokenized request" style="edgeLabel;html=1;align=center;verticalAlign=middle;resizable=0;points=[];rounded=0;" parent="CtdPbiy3GI51ASY6TGqe-14" vertex="1" connectable="0">
          <mxGeometry x="-0.1558" y="1" relative="1" as="geometry">
            <mxPoint x="-16" y="1" as="offset" />
          </mxGeometry>
        </mxCell>
        <mxCell id="UEzPUAAOIrF-is8g5C7q-114" value="&lt;font style=&quot;font-size: 10px;&quot;&gt;Amazon API&lt;br&gt;Gateway&lt;/font&gt;" style="outlineConnect=0;fontColor=#232F3E;gradientColor=#945DF2;gradientDirection=north;fillColor=#5A30B5;strokeColor=#ffffff;dashed=0;verticalLabelPosition=bottom;verticalAlign=top;align=center;html=1;fontSize=12;fontStyle=0;aspect=fixed;shape=mxgraph.aws4.resourceIcon;resIcon=mxgraph.aws4.api_gateway;labelBackgroundColor=#ffffff;rounded=0;" parent="1" vertex="1">
          <mxGeometry x="180" y="230" width="50" height="50" as="geometry" />
        </mxCell>
        <mxCell id="UEzPUAAOIrF-is8g5C7q-119" value="&lt;font style=&quot;font-size: 10px;&quot;&gt;&lt;b&gt;DynamoDB&lt;/b&gt;&lt;br&gt;&lt;/font&gt;&lt;div&gt;&lt;font style=&quot;font-size: 10px;&quot;&gt;recipients&lt;/font&gt;&lt;/div&gt;" style="outlineConnect=0;fontColor=#232F3E;gradientColor=#4D72F3;gradientDirection=north;fillColor=#3334B9;strokeColor=#ffffff;dashed=0;verticalLabelPosition=bottom;verticalAlign=top;align=center;html=1;fontSize=12;fontStyle=0;aspect=fixed;shape=mxgraph.aws4.resourceIcon;resIcon=mxgraph.aws4.dynamodb;labelBackgroundColor=#ffffff;spacingTop=5;rounded=0;" parent="1" vertex="1">
          <mxGeometry x="550.0000000000002" y="469.1" width="50" height="50" as="geometry" />
        </mxCell>
        <mxCell id="UEzPUAAOIrF-is8g5C7q-122" value="&lt;font style=&quot;font-size: 10px;&quot;&gt;IAM Roles&lt;/font&gt;" style="outlineConnect=0;fontColor=#232F3E;gradientColor=none;fillColor=#C7131F;strokeColor=none;dashed=0;verticalLabelPosition=bottom;verticalAlign=top;align=center;html=1;fontSize=12;fontStyle=0;aspect=fixed;pointerEvents=1;shape=mxgraph.aws4.role;labelBackgroundColor=#ffffff;rounded=0;" parent="1" vertex="1">
          <mxGeometry x="410.0000000000002" y="480" width="50" height="28.21" as="geometry" />
        </mxCell>
        <mxCell id="2bszFWF5enrOarzOYY19-11" style="edgeStyle=orthogonalEdgeStyle;rounded=0;orthogonalLoop=1;jettySize=auto;html=1;" parent="1" source="2bszFWF5enrOarzOYY19-10" target="UEzPUAAOIrF-is8g5C7q-114" edge="1">
          <mxGeometry relative="1" as="geometry">
            <mxPoint x="200" y="328" as="targetPoint" />
            <mxPoint x="82.5" y="308" as="sourcePoint" />
          </mxGeometry>
        </mxCell>
        <mxCell id="2bszFWF5enrOarzOYY19-12" value="HTTP" style="edgeLabel;html=1;align=center;verticalAlign=middle;resizable=0;points=[];rounded=0;" parent="2bszFWF5enrOarzOYY19-11" vertex="1" connectable="0">
          <mxGeometry x="-0.07" y="2" relative="1" as="geometry">
            <mxPoint y="1" as="offset" />
          </mxGeometry>
        </mxCell>
        <mxCell id="2bszFWF5enrOarzOYY19-10" value="&lt;font style=&quot;font-size: 10px;&quot;&gt;Client&lt;/font&gt;" style="outlineConnect=0;fontColor=#232F3E;gradientColor=none;strokeColor=#232F3E;fillColor=#ffffff;dashed=0;verticalLabelPosition=bottom;verticalAlign=top;align=center;html=1;fontSize=12;fontStyle=0;aspect=fixed;shape=mxgraph.aws4.resourceIcon;resIcon=mxgraph.aws4.client;rounded=0;" parent="1" vertex="1">
          <mxGeometry x="29.369999999999997" y="230" width="50" height="50" as="geometry" />
        </mxCell>
        <mxCell id="2bszFWF5enrOarzOYY19-34" value="&lt;font style=&quot;font-size: 10px;&quot;&gt;SSM Parameter Store&lt;/font&gt;" style="outlineConnect=0;fontColor=#232F3E;gradientColor=none;fillColor=#E7157B;strokeColor=none;dashed=0;verticalLabelPosition=top;verticalAlign=bottom;align=center;html=1;fontSize=12;fontStyle=0;aspect=fixed;pointerEvents=1;shape=mxgraph.aws4.parameter_store;rounded=0;labelPosition=center;" parent="1" vertex="1">
          <mxGeometry x="485" y="-10" width="50" height="52" as="geometry" />
        </mxCell>
        <mxCell id="CtdPbiy3GI51ASY6TGqe-25" value="&lt;span style=&quot;text-align: start;&quot;&gt;&lt;font&gt;Stores secrets like JWT keys for secure token validation&lt;/font&gt;&lt;/span&gt;" style="text;html=1;align=center;verticalAlign=middle;whiteSpace=wrap;rounded=0;fontSize=10;" parent="1" vertex="1">
          <mxGeometry x="380" y="10" width="90" height="59" as="geometry" />
        </mxCell>
        <mxCell id="CtdPbiy3GI51ASY6TGqe-26" value="&lt;span style=&quot;text-align: start;&quot;&gt;&lt;font&gt;Generates JWT for authentication&lt;/font&gt;&lt;/span&gt;" style="shape=note;size=0;whiteSpace=wrap;html=1;rounded=0;fontSize=10;" parent="1" vertex="1">
          <mxGeometry x="8.75" y="130" width="91.25" height="40" as="geometry" />
        </mxCell>
        <mxCell id="OCkY8BS5w66nE0tChxpi-5" style="edgeStyle=orthogonalEdgeStyle;rounded=0;orthogonalLoop=1;jettySize=auto;html=1;" parent="1" source="OCkY8BS5w66nE0tChxpi-3" target="UEzPUAAOIrF-is8g5C7q-119" edge="1">
          <mxGeometry relative="1" as="geometry" />
        </mxCell>
        <mxCell id="OCkY8BS5w66nE0tChxpi-3" value="&lt;font style=&quot;font-size: 10px;&quot;&gt;VPC DynamoDB Endpoint&lt;/font&gt;" style="outlineConnect=0;fontColor=#232F3E;gradientColor=none;fillColor=#8C4FFF;strokeColor=none;dashed=0;verticalLabelPosition=bottom;verticalAlign=top;align=center;html=1;fontSize=12;fontStyle=0;aspect=fixed;pointerEvents=1;shape=mxgraph.aws4.endpoints;rounded=0;" parent="1" vertex="1">
          <mxGeometry x="560" y="374" width="30" height="30" as="geometry" />
        </mxCell>
        <mxCell id="OCkY8BS5w66nE0tChxpi-8" style="edgeStyle=orthogonalEdgeStyle;rounded=0;orthogonalLoop=1;jettySize=auto;html=1;" parent="1" source="OCkY8BS5w66nE0tChxpi-6" target="2bszFWF5enrOarzOYY19-34" edge="1">
          <mxGeometry relative="1" as="geometry">
            <mxPoint x="558" y="98" as="targetPoint" />
          </mxGeometry>
        </mxCell>
        <mxCell id="OCkY8BS5w66nE0tChxpi-6" value="&lt;font style=&quot;font-size: 10px;&quot;&gt;VPC SSM Endpoint&lt;/font&gt;" style="outlineConnect=0;fontColor=#232F3E;gradientColor=none;fillColor=#8C4FFF;strokeColor=none;dashed=0;verticalLabelPosition=bottom;verticalAlign=top;align=center;html=1;fontSize=12;fontStyle=0;aspect=fixed;pointerEvents=1;shape=mxgraph.aws4.endpoints;rounded=0;" parent="1" vertex="1">
          <mxGeometry x="495" y="100" width="30" height="30" as="geometry" />
        </mxCell>
        <mxCell id="OCkY8BS5w66nE0tChxpi-9" style="edgeStyle=orthogonalEdgeStyle;rounded=0;orthogonalLoop=1;jettySize=auto;html=1;entryX=0.5;entryY=1;entryDx=0;entryDy=0;entryPerimeter=0;" parent="1" source="2bszFWF5enrOarzOYY19-10" target="CtdPbiy3GI51ASY6TGqe-26" edge="1">
          <mxGeometry relative="1" as="geometry" />
        </mxCell>
        <mxCell id="UEzPUAAOIrF-is8g5C7q-121" value="&lt;font style=&quot;font-size: 10px;&quot;&gt;Amazon&lt;br&gt;CloudWatch&lt;/font&gt;" style="outlineConnect=0;fontColor=#232F3E;gradientColor=#F34482;gradientDirection=north;fillColor=#BC1356;strokeColor=#ffffff;dashed=0;verticalLabelPosition=top;verticalAlign=bottom;align=center;html=1;fontSize=12;fontStyle=0;aspect=fixed;shape=mxgraph.aws4.resourceIcon;resIcon=mxgraph.aws4.cloudwatch;labelBackgroundColor=#ffffff;rounded=0;labelPosition=center;" parent="1" vertex="1">
          <mxGeometry x="590.0000000000002" width="50" height="50" as="geometry" />
        </mxCell>
        <mxCell id="YrNKa76hlHVVeDNpaleT-11" style="edgeStyle=orthogonalEdgeStyle;rounded=0;orthogonalLoop=1;jettySize=auto;html=1;curved=1;dashed=1;" edge="1" parent="1" source="UEzPUAAOIrF-is8g5C7q-115" target="OCkY8BS5w66nE0tChxpi-3">
          <mxGeometry relative="1" as="geometry" />
        </mxCell>
        <mxCell id="YrNKa76hlHVVeDNpaleT-13" style="edgeStyle=orthogonalEdgeStyle;rounded=0;orthogonalLoop=1;jettySize=auto;html=1;curved=1;dashed=1;" edge="1" parent="1" source="UEzPUAAOIrF-is8g5C7q-115" target="UEzPUAAOIrF-is8g5C7q-121">
          <mxGeometry relative="1" as="geometry" />
        </mxCell>
        <mxCell id="YrNKa76hlHVVeDNpaleT-14" style="edgeStyle=orthogonalEdgeStyle;rounded=0;orthogonalLoop=1;jettySize=auto;html=1;curved=1;" edge="1" parent="1" source="UEzPUAAOIrF-is8g5C7q-115" target="OCkY8BS5w66nE0tChxpi-6">
          <mxGeometry relative="1" as="geometry" />
        </mxCell>
        <mxCell id="YrNKa76hlHVVeDNpaleT-16" value="&lt;span style=&quot;font-size: 10px; white-space: normal; text-align: start;&quot;&gt;Monitors logs and&amp;nbsp;&lt;/span&gt;&lt;span style=&quot;font-size: 10px; white-space: normal; text-align: start;&quot;&gt;metrics&lt;/span&gt;" style="edgeLabel;html=1;align=center;verticalAlign=middle;resizable=0;points=[];fontSize=12;labelBackgroundColor=none;" vertex="1" connectable="0" parent="1">
          <mxGeometry x="970.003363260379" y="260.0021564046925" as="geometry">
            <mxPoint x="-330" y="-166" as="offset" />
          </mxGeometry>
        </mxCell>
        <mxCell id="YrNKa76hlHVVeDNpaleT-17" style="edgeStyle=orthogonalEdgeStyle;rounded=0;orthogonalLoop=1;jettySize=auto;html=1;" edge="1" parent="1" source="UEzPUAAOIrF-is8g5C7q-115" target="UEzPUAAOIrF-is8g5C7q-122">
          <mxGeometry relative="1" as="geometry" />
        </mxCell>
        <mxCell id="YrNKa76hlHVVeDNpaleT-15" value="&lt;font style=&quot;font-size: 9px;&quot;&gt;Route table&lt;/font&gt;" style="outlineConnect=0;dashed=0;verticalLabelPosition=bottom;verticalAlign=bottom;align=center;html=1;shape=mxgraph.aws3.route_table;fillColor=#F58536;gradientColor=none;" vertex="1" parent="1">
          <mxGeometry x="670" y="160" width="20" height="18" as="geometry" />
        </mxCell>
      </root>
    </mxGraphModel>
  </diagram>
</mxfile>
